# xmcd
#
# Track frame offsets:
#	150
#	18544
#	35572
#	52450
#	69054
#	84627
#	100219
#	114923
#	132105
#	153112
#	168163
#	184343
#	198423
#	213714
#	231026
#	245401
#	263598
#	281730
#	297100
#	310918
#	327132
#
# Disc length: 4548 seconds
#
# Revision: 1
# Processed by: cddbd v1.5.2PL0 Copyright (c) Steve Scherf et al.
# Submitted via: audiograbber 1.83.01
#
DISCID=2a11c215
DTITLE=Various Artist - Nu Country Traxx Volume 108
DYEAR=2008
DGENRE=Country
TTITLE0=Last Name - Carrie Underwood
TTITLE1=Midnight Sun - Garth Brooks
TTITLE2=Invisibly Shaken - Rodney Atkins
TTITLE3=His Kinda Money (My Kinda Love) - Eric Church
TTITLE4=All I Ever Wanted - Chuck Wicks
TTITLE5=Learning How To Bend - Gary Allen
TTITLE6=Crazy Days - Adam Gregory
TTITLE7=Let Me Love You - Lonestar
TTITLE8=How You Live (Turn Up The Music) - Point Of Grace
TTITLE9=Kristofferson - Time McGraw
TTITLE10=Gimme Some Water - Eddie Money
TTITLE11=She's A Hottie - Toby Keith
TTITLE12=Where Did My Dirt Road Go - Jason Meadows
TTITLE13=Jesus and Gravity - Dolly Parton
TTITLE14=Country Man - Luke Bryan
TTITLE15=Every Other Weekend - Reba McEntire duet with Skip Ewing
TTITLE16=Goddess - Shawna Russell
TTITLE17=Do You Believe Me Now - Jimmy Wayne
TTITLE18=Spin - Codie Prevost
TTITLE19=Johnny And June - Heidi Newfield
TTITLE20=Cheaper Than A Drink - Will Peppers
EXTD=
EXTT0=
EXTT1=
EXTT2=
EXTT3=
EXTT4=
EXTT5=
EXTT6=
EXTT7=
EXTT8=
EXTT9=
EXTT10=
EXTT11=
EXTT12=
EXTT13=
EXTT14=
EXTT15=
EXTT16=
EXTT17=
EXTT18=
EXTT19=
EXTT20=
PLAYORDER=
